Patient4_TMGait_0pt6_01_left_47_EMG.mot
version=1
nRows=26
nColumns=33
inDegrees=no
endheader
time	1LAddLong	2LGlutMax	3LGlutMed	4LIliopsoas	5LSemiMemb	6LBicFemLong	7LRecFem	8LVastMed	9LVastLat	10LGasMed	11LTibAnt	12lTibPost	13LPeroneusLong	14LSol	15LExtDigLong	16LFlexDigLong	17RAddLong	18RGlutMax	19RGlutMed	20RIliopsoas	21RSemiMemb	22RBicFemLong	23RRecFem	24RVastMed	25RVastLat	26RGasMed	27RTibAnt	28RTibPost	29RPeroneusLong	30RSol	31RExtDigLong	32RFlexDigLong
57.62	0.018311	0.92834	-0.15274	0.012512	-0.12665	0.000305	-0.11704	0.003357	-0.02655	0.018768	-0.001373	0.029449	-0.22797	-0.22293	0.007324	0.00412	0.19867	-0.046082	-0.24384	0.053711	-0.006104	-0.28854	0.49271	-0.30304	-0.062256	-0.000916	-0.53406	0.002441	-0.015717	-0.062714	-0.001526	-0.011139
57.621	0.032043	1.0318	-0.079193	-0.007782	-0.11292	0.079193	-0.2002	-0.007477	0.027771	-0.10788	0.023804	0.027924	-0.045929	-0.046082	0.035858	0.010223	0.10666	-0.094147	-0.16907	0.027466	0.002136	-0.15793	0.5072	-0.25589	-0.027008	-0.003052	-0.74524	-0.005188	0.024719	-0.14358	-0.003662	-0.011292
57.622	0.036011	1.1575	-0.078583	0.013123	-0.010834	-0.20538	-0.21957	-0.007935	-0.006256	-0.17212	-0.020752	0.021057	-0.061035	-0.1506	-0.037537	0.001221	-0.010681	-0.14969	-0.097351	0.064392	-0.014038	0.01297	0.47287	-0.23758	-0.048828	-0.004272	-0.86945	0.001984	0.005493	-0.18082	0.002136	-0.009766
57.623	0.021362	1.2553	-0.00473	0.004425	0.066986	-0.36636	-0.19714	-0.010071	-0.071259	-0.25116	-0.002747	0.017242	-0.078888	0.007324	0.074463	0.007629	-0.14755	-0.22751	-0.17822	0.13534	0.004425	0.099792	0.49728	-0.14816	-0.028534	-0.000153	-0.59097	0.006714	0.032959	-0.13336	-0.003815	0.000916
57.624	0.001526	1.2521	0.051575	0.019073	0.09903	-0.28549	-0.17929	0.007324	-0.19898	-0.28915	-0.015869	0.019989	-0.11948	0.087738	0.12207	0.007782	-0.18692	-0.25162	-0.16953	0.14618	-0.017395	0.097351	0.4689	-0.11398	-0.008392	0.021362	-0.025787	0	0.099792	-0.16357	-0.006104	0.003815
57.625	-0.02533	1.4099	0.1178	0.037689	0.048218	-0.25925	-0.14481	0.034637	-0.23361	-0.30701	-0.011749	0.016632	-0.013885	-0.12146	0.015564	0.005035	-0.13763	-0.33905	-0.11612	0.1091	-0.042725	0.008545	0.41229	-0.021362	-0.006104	0.025787	0.11765	-0.002899	0.1207	-0.1506	-0.00412	-0.000305
57.626	-0.027008	1.5373	0.068207	0.023041	-0.002289	-0.11444	-0.15305	0.055847	-0.18967	-0.27588	-0.019226	0.003357	0.088654	-0.16907	-0.020447	-0.003357	-0.093079	-0.46005	-0.28641	0.10544	-0.067749	-0.007172	0.40268	-0.013885	-0.004578	0.011292	0.34271	-0.004425	-0.031891	-0.022583	-0.005188	-0.005035
57.627	0.017242	1.6405	-0.006866	0.019836	-0.12329	-0.034027	-0.2446	0.061798	-0.060272	-0.034637	-0.014954	-0.000153	0.076599	0.080566	0.075684	-0.003052	-0.06485	-0.52185	-0.4953	0.1593	-0.039978	0.005341	0.37384	0.009766	0.002899	0.003662	0.42526	-0.002441	-0.12619	0.058289	-0.005035	-0.005341
57.628	0.02655	1.7271	-0.19974	0.007172	-0.13916	-0.32623	-0.32654	0.041199	0.00351	0.28214	-0.014191	-0.011749	0.055237	0.051727	0.075989	-0.005646	-0.014038	-0.63461	-0.45548	0.1445	0.021667	0.021973	0.33768	0.010376	0.017853	-0.002441	0.41321	-0.005646	-0.16312	0.12909	-0.000458	-0.012665
57.629	0.029297	1.785	-0.30319	0.000916	0.016785	-0.25101	-0.33005	0.026703	-0.028839	0.61203	-0.000763	-0.01297	0.13229	-0.014191	0.025177	-0.016327	-0.011597	-0.63522	-0.37735	0.12848	0.061951	0.074158	0.33127	0.041046	0.024567	0.003967	0.6221	-0.004883	-0.071259	0.15076	-0.001068	-0.011902
57.63	0.023346	1.8488	-0.051727	-0.000916	0.16205	0.065765	-0.26733	0.004425	0.020294	0.44556	0.019379	-0.015717	0.34271	0.028687	0.053253	-0.013428	-0.052948	-0.65964	-0.42984	-0.001526	0.081177	0.097351	0.31052	0.06485	0.046692	-0.002899	0.55176	0.001373	-0.029602	0.036011	-0.001678	-0.012512
57.631	0.010223	1.7397	0.063782	-0.007172	0.065308	0.30121	-0.23163	-0.025177	0.12528	0.24826	0.013123	-0.001373	0.49972	0.074615	0.072174	-0.006104	-0.058594	-0.70587	-0.38238	-0.11398	0.080261	0.099487	0.27817	0.082397	0.066223	-0.000305	0.15717	-0.001526	-0.032196	-0.048828	-0.005493	-0.010986
57.632	0.006866	1.5623	0.12817	0.003204	-0.029449	0.38483	-0.25421	-0.03952	0.20691	0.054321	0.03067	0.019073	-0.13916	0.16495	0.052185	-0.018768	-0.088043	-0.75272	-0.41946	-0.16617	0.047913	0.075684	0.29144	0.034943	0.059204	0.002136	0.29511	-0.007782	0.029907	-0.007629	-0.00412	-0.012512
57.633	-0.001678	1.474	0.068207	-0.01358	-0.049896	0.26367	-0.33173	-0.035248	0.13992	-0.032654	0.025177	-0.003204	-0.6282	0.13641	-0.029144	-0.019989	-0.061035	-0.83954	-0.33402	-0.011444	0.039063	0.055237	0.32227	-0.032043	0.044861	0.002747	0.38635	0.009155	0.028687	-0.0177	-0.000916	-0.014648
57.634	0.002899	1.3417	0.002136	-0.009155	-0.055084	0.32379	-0.32593	-0.026855	0.049591	-0.1506	-0.000916	-0.05188	-0.33859	0.21957	-0.066528	-0.011749	-0.011444	-0.9967	-0.5217	0.098572	0.050354	0.019989	0.30716	0.007172	0.037689	-0.003204	0.5722	-0.005493	-0.05188	0.025787	-0.005493	-0.007019
57.635	0.005035	1.2527	-0.019379	0.007172	-0.059052	0.45776	-0.31677	-0.014954	0.027924	-0.12024	-0.023041	-0.13077	0.029297	0.10101	-0.099182	-0.003815	0.007782	-1.0883	-0.52521	0.061035	0.020294	-0.010529	0.33447	0.006561	0.027313	0.002136	0.36957	-0.006256	-0.068817	0.076904	-0.002899	-0.00351
57.636	0.003967	1.1131	-0.048676	0.010986	-0.077209	0.41321	-0.32074	0.008698	0.003204	0.088196	-0.011444	-0.25436	0.30106	-0.08728	-0.040131	-0.007019	0.021057	-1.1589	-0.83588	0.015869	0.003357	-0.02182	0.34347	0.026093	0.012665	0.008392	-0.89447	-0.006866	-0.028992	-0.028992	-0.003815	-0.005035
57.637	-0.006256	1.0535	-0.046234	0.004425	-0.061646	0.26596	-0.25909	0.010529	-0.033875	0.027924	-0.00824	0.30838	0.099792	-0.26977	-0.017395	-0.041199	0.010376	-1.2627	-0.77667	-0.028992	-0.001984	-0.050354	0.32028	0.018005	0.015259	0.008545	-0.67398	0.007324	-0.11749	-0.098724	-0.002594	-0.004578
57.638	-0.010681	0.93475	-0.057831	-0.003815	-0.069122	0.36179	-0.31693	0.02594	0.014496	0.005188	0.008087	0.1091	-0.031281	-0.19409	-0.021057	-0.047302	0.009766	-1.2291	-0.71625	-0.080872	-0.022278	-0.075378	0.33752	0.043182	0.025787	0.012207	0.29037	-0.00412	-0.1294	-0.060272	-0.002441	-0.003357
57.639	0.001526	0.89066	-0.16525	0.019836	-0.15335	0.38544	-0.37125	0.023346	0.090637	0.11307	0.005951	0.041656	0.16296	0.010071	-0.070496	-0.040131	0.011444	-1.2624	-0.73852	-0.10498	-0.032959	-0.040436	0.34576	0.000305	0.014648	0.000458	0.27893	-0.002899	-0.10254	0.045013	-0.003052	-0.01358
57.64	-0.002899	0.70877	-0.1619	0.038605	-0.20432	0.08667	-0.33875	0.006866	0.14587	0.051575	0.010681	-0.010071	0.42313	0.22018	0.002747	0.019073	0.013733	-1.2984	-0.69809	-0.096283	-0.026398	0.0177	0.39276	-0.033264	-0.02594	0.000916	-0.072632	-0.005035	-0.017242	-0.024414	-0.007019	-0.006866
57.641	0.002899	0.54352	-0.091553	0.019836	-0.082703	-0.33707	-0.31357	-0.001526	0.16556	-0.021362	0.045013	-0.035095	0.3183	-0.013123	0.033112	-0.000458	0.016174	-1.4034	-0.77286	-0.16357	-0.023499	0.014954	0.37003	-0.045166	-0.019836	-0.002747	-0.54657	-0.000458	0.14801	-0.059357	0.00412	-0.000305
57.642	0.017395	0.48111	0.07019	0.016937	0.15808	-0.50934	-0.28214	-0.024719	0.17425	0.1059	0.058594	0.010834	-0.13534	-0.19562	0.024261	0.010223	0.058289	-1.3713	-0.74921	-0.16144	-0.023804	-0.007172	0.40985	-0.068512	-0.037079	-0.009003	-0.75119	0.002899	0.17731	0.00946	-0.001373	-0.007629
57.643	0.013733	0.31189	0.064087	0.002441	0.2385	-0.40832	-0.22492	-0.027466	0.13855	0.22736	0.058746	-0.058746	-0.16937	-0.029449	0.02594	-0.011902	0.071869	-1.4362	-0.80856	-0.1326	-0.043793	-0.000916	0.42404	-0.070801	-0.063019	-0.015564	-0.71976	0.000305	0.071411	0.061035	-0.005493	-0.001373
57.644	0.014343	0.21545	0.051575	-0.004578	0.15488	-0.30289	-0.21515	-0.013885	0.11475	0.062561	0.022736	-0.052643	0.27725	0.22522	0.03479	-0.020599	0.092621	-1.5086	-0.78873	-0.10651	-0.045166	-0.003204	0.38605	-0.13168	-0.079803	-0.011444	-0.3096	0.000305	-0.003204	0.034943	-0.000916	-0.005188
57.645	0.010834	0.17838	0.023651	0.007782	0.088196	-0.097961	-0.22324	0.001068	0.10162	-0.091705	0.018768	-0.039825	0.46143	0.23148	0.01236	-0.008698	0.066833	-1.559	-0.87174	-0.033569	-0.041199	-0.000305	0.37582	-0.11078	-0.056305	-0.011292	0.11948	0.000153	0.028992	-0.057373	-0.003815	-0.008392
